<?xml version="1.0" encoding="iso-8859-1"?>
<!-- Uploaded to: SVG Repo, www.svgrepo.com, Generator: SVG Repo Mixer Tools -->
<svg fill="#000000" version="1.1" id="Layer_1" xmlns="http://www.w3.org/2000/svg" xmlns:xlink="http://www.w3.org/1999/xlink" 
	 viewBox="0 0 512 512" xml:space="preserve">
<g>
	<g>
		<g>
			<rect x="200.264" y="47.772" width="111.472" height="15.534"/>
			<polygon points="215.991,15.534 296.005,15.534 296.005,39.616 311.539,39.616 311.539,0 200.457,0 200.457,39.616 
				215.991,39.616 			"/>
			<path d="M296.005,375.443l-8.352-5.568V71.465h-15.534v298.41L256,380.621l-16.119-10.747V71.465h-15.534v298.41l-8.353,5.568
				V71.465h-15.534v320.197L256,512l55.541-120.338V71.465h-15.535V375.443z M255.998,474.93l-9.91-21.471h19.819L255.998,474.93z
				 M273.077,437.925h-34.159l-20.858-45.193l14.051-9.367l23.886,15.924l23.888-15.924l14.05,9.367L273.077,437.925z"/>
		</g>
	</g>
</g>
</svg>